<svg width="0" height="0" class="hidden">
  <symbol fill="currentColor" xmlns="http://www.w3.org/2000/svg" viewBox="0 0 16 16" id="document">
    <path d="M4.5 1.02344H7.375C7.40194 1.02344 7.42822 1.03369 7.44727 1.05273C7.46631 1.07178 7.47656 1.09806 7.47656 1.125V5.5C7.47656 5.90404 7.63715 6.29145 7.92285 6.57715C8.20855 6.86285 8.59596 7.02344 9 7.02344H13.375C13.4019 7.02344 13.4282 7.03369 13.4473 7.05273C13.4663 7.07178 13.4766 7.09806 13.4766 7.125V13C13.4766 13.5242 13.2681 14.0268 12.8975 14.3975C12.5268 14.7681 12.0242 14.9766 11.5 14.9766H4.5C3.97578 14.9766 3.47322 14.7681 3.10254 14.3975C2.73186 14.0268 2.52344 13.5242 2.52344 13V3C2.52344 2.47578 2.73186 1.97322 3.10254 1.60254C3.47322 1.23186 3.97578 1.02344 4.5 1.02344ZM5.5 10.9766C5.36118 10.9766 5.22805 11.0317 5.12988 11.1299C5.03172 11.228 4.97656 11.3612 4.97656 11.5C4.97656 11.6388 5.03172 11.772 5.12988 11.8701C5.22805 11.9683 5.36118 12.0234 5.5 12.0234H10.5C10.6388 12.0234 10.772 11.9683 10.8701 11.8701C10.9683 11.772 11.0234 11.6388 11.0234 11.5C11.0234 11.3612 10.9683 11.228 10.8701 11.1299C10.772 11.0317 10.6388 10.9766 10.5 10.9766H5.5ZM5.5 8.47656C5.36118 8.47656 5.22805 8.53172 5.12988 8.62988C5.03172 8.72805 4.97656 8.86118 4.97656 9C4.97656 9.13882 5.03172 9.27195 5.12988 9.37012C5.22805 9.46828 5.36118 9.52344 5.5 9.52344H10.5C10.6388 9.52344 10.772 9.46828 10.8701 9.37012C10.9683 9.27195 11.0234 9.13882 11.0234 9C11.0234 8.86118 10.9683 8.72805 10.8701 8.62988C10.772 8.53172 10.6388 8.47656 10.5 8.47656H5.5Z" fill="currentColor" stroke="currentColor" stroke-width="0.046875"></path>
    <path d="M8.57031 1.40527C8.57776 1.4068 8.58445 1.41065 8.58984 1.41602L13.084 5.90918C13.0894 5.91464 13.0932 5.92213 13.0947 5.92969C13.0962 5.93718 13.0957 5.94509 13.0928 5.95215C13.0898 5.95927 13.0845 5.96543 13.0781 5.96973C13.0718 5.97397 13.0643 5.9765 13.0566 5.97656H9C8.87369 5.97656 8.75244 5.92618 8.66309 5.83691C8.57379 5.74762 8.52353 5.62627 8.52344 5.5V1.44336L8.53027 1.42188C8.53457 1.41548 8.54073 1.41017 8.54785 1.40723C8.5549 1.40437 8.56285 1.4038 8.57031 1.40527Z" fill="currentColor" stroke="currentColor" stroke-width="0.046875"></path>
  </symbol>
  <symbol fill="currentColor" xmlns="http://www.w3.org/2000/svg" viewBox="0 0 16 16" id="dashboard">
    <path d="M2.66699 10.5H6.66699C6.69835 10.5 6.72135 10.5041 6.74023 10.5117L6.78906 10.5459C6.81771 10.5751 6.83301 10.6048 6.83301 10.667V13.333C6.83301 13.3962 6.81707 13.4251 6.78809 13.4541C6.75836 13.4838 6.72947 13.4999 6.66699 13.5H2.66699C2.6043 13.5 2.575 13.4843 2.5459 13.4551L2.54492 13.4541L2.51172 13.4062C2.5041 13.3876 2.5 13.3644 2.5 13.333V10.667C2.5 10.6043 2.51611 10.5747 2.5459 10.5449C2.57483 10.516 2.60387 10.5 2.66699 10.5ZM9.33301 7.83301H13.333C13.396 7.83301 13.4252 7.84915 13.4541 7.87793C13.4839 7.90771 13.5 7.93729 13.5 8V13.333C13.5 13.3957 13.4843 13.425 13.4551 13.4541L13.4541 13.4551C13.425 13.4843 13.3957 13.5 13.333 13.5H9.33301C9.27057 13.4999 9.24193 13.4842 9.21289 13.4551L9.21191 13.4541L9.17773 13.4062C9.17018 13.3876 9.16699 13.3643 9.16699 13.333V8C9.16699 7.9373 9.18214 7.90771 9.21191 7.87793C9.24084 7.849 9.27 7.83306 9.33301 7.83301ZM2.83301 13.167H6.5V10.833H2.83301V13.167ZM9.5 13.167H13.167V8.16699H9.5V13.167ZM2.66699 2.5H6.66699C6.69835 2.50003 6.72135 2.50411 6.74023 2.51172L6.78906 2.5459C6.81771 2.57508 6.83301 2.60476 6.83301 2.66699V8C6.83301 8.06324 6.81707 8.09211 6.78809 8.12109C6.75841 8.15072 6.72936 8.16694 6.66699 8.16699H2.66699C2.60433 8.16699 2.57499 8.15125 2.5459 8.12207L2.54492 8.12012C2.51584 8.09108 2.5 8.06255 2.5 8V2.66699C2.5 2.60429 2.51611 2.57471 2.5459 2.54492C2.57483 2.51604 2.60387 2.5 2.66699 2.5ZM2.83301 7.83301H6.5V2.83301H2.83301V7.83301ZM9.33301 2.5H13.333C13.3961 2.5 13.4252 2.51604 13.4541 2.54492C13.4839 2.57471 13.5 2.60429 13.5 2.66699V5.33301C13.5 5.3957 13.4843 5.425 13.4551 5.4541L13.4541 5.45508C13.425 5.48428 13.3957 5.5 13.333 5.5H9.33301C9.27057 5.49995 9.24193 5.48421 9.21289 5.45508L9.21191 5.4541L9.17773 5.40625C9.17018 5.38762 9.16699 5.3643 9.16699 5.33301V2.66699C9.16699 2.60441 9.18224 2.57465 9.21191 2.54492C9.24084 2.51599 9.27 2.50005 9.33301 2.5ZM9.5 5.16699H13.167V2.83301H9.5V5.16699Z" fill="black" stroke="currentColor"></path>
  </symbol>
  <symbol fill="none" xmlns="http://www.w3.org/2000/svg" viewBox="0 0 16 16" id="albums">
    <path d="M13.0978 5.5H2.90219C2.40392 5.5 2 5.90392 2 6.40219V12.5978C2 13.0961 2.40392 13.5 2.90219 13.5H13.0978C13.5961 13.5 14 13.0961 14 12.5978V6.40219C14 5.90392 13.5961 5.5 13.0978 5.5Z" stroke="currentColor" stroke-width="1.5" stroke-linejoin="round"></path>
    <path d="M4.5 2.5H11.5ZM3.5 4H12.5Z" fill="#232321"></path>
    <path d="M4.5 2.5H11.5M3.5 4H12.5" stroke="currentColor" stroke-width="1.5" stroke-miterlimit="10" stroke-linecap="round"></path>
  </symbol>

  <symbol fill="currentColor" xmlns="http://www.w3.org/2000/svg" viewBox="0 0 24 24" id="users">
    <g clip-path="url(#clip0_1251_98416)">
      <path fill-rule="evenodd" clip-rule="evenodd" d="M9 0C5.96243 0 3.5 2.46243 3.5 5.5C3.5 8.53757 5.96243 11 9 11C12.0376 11 14.5 8.53757 14.5 5.5C14.5 2.46243 12.0376 0 9 0ZM5.5 5.5C5.5 3.567 7.067 2 9 2C10.933 2 12.5 3.567 12.5 5.5C12.5 7.433 10.933 9 9 9C7.067 9 5.5 7.433 5.5 5.5Z" fill="currentColor"></path>
      <path d="M15.5 0C14.9477 0 14.5 0.447715 14.5 1C14.5 1.55228 14.9477 2 15.5 2C17.433 2 19 3.567 19 5.5C19 7.433 17.433 9 15.5 9C14.9477 9 14.5 9.44771 14.5 10C14.5 10.5523 14.9477 11 15.5 11C18.5376 11 21 8.53757 21 5.5C21 2.46243 18.5376 0 15.5 0Z" fill="currentColor"></path>
      <path d="M19.0837 14.0157C19.3048 13.5096 19.8943 13.2786 20.4004 13.4997C22.5174 14.4246 24 16.538 24 19V21C24 21.5523 23.5523 22 23 22C22.4477 22 22 21.5523 22 21V19C22 17.3613 21.0145 15.9505 19.5996 15.3324C19.0935 15.1113 18.8625 14.5217 19.0837 14.0157Z" fill="currentColor"></path>
      <path d="M6 13C2.68629 13 0 15.6863 0 19V21C0 21.5523 0.447715 22 1 22C1.55228 22 2 21.5523 2 21V19C2 16.7909 3.79086 15 6 15H12C14.2091 15 16 16.7909 16 19V21C16 21.5523 16.4477 22 17 22C17.5523 22 18 21.5523 18 21V19C18 15.6863 15.3137 13 12 13H6Z" fill="currentColor"></path>
    </g>
    <defs>
      <clipPath id="clip0_1251_98416">
        <rect width="24" height="24" fill="white"></rect>
      </clipPath>
    </defs>
  </symbol>

</svg>
