<svg width="59" height="51" viewBox="0 0 59 51" fill="none" xmlns="http://www.w3.org/2000/svg">
<g filter="url(#filter0_d_253_2882)">
<path d="M51.5 0H7.5C6.57174 0 5.6815 0.368749 5.02513 1.02513C4.36875 1.6815 4 2.57174 4 3.5V39.5C4 40.4283 4.36875 41.3185 5.02513 41.9749C5.6815 42.6312 6.57174 43 7.5 43H51.5C52.4283 43 53.3185 42.6312 53.9749 41.9749C54.6312 41.3185 55 40.4283 55 39.5V3.5C55 2.57174 54.6312 1.6815 53.9749 1.02513C53.3185 0.368749 52.4283 0 51.5 0ZM7.5 3H51.5C51.6326 3 51.7598 3.05268 51.8536 3.14645C51.9473 3.24021 52 3.36739 52 3.5V31.875L43.975 23.85C43.3154 23.1996 42.4263 22.835 41.5 22.835C40.5737 22.835 39.6846 23.1996 39.025 23.85L33.85 29.025C33.8055 29.0735 33.7514 29.1122 33.6912 29.1387C33.6309 29.1652 33.5658 29.1789 33.5 29.1789C33.4342 29.1789 33.3691 29.1652 33.3088 29.1387C33.2486 29.1122 33.1945 29.0735 33.15 29.025L21.975 17.85C21.3154 17.1996 20.4263 16.835 19.5 16.835C18.5737 16.835 17.6846 17.1996 17.025 17.85L7 27.875V3.5C7 3.36739 7.05268 3.24021 7.14645 3.14645C7.24021 3.05268 7.36739 3 7.5 3ZM51.5 40H7.5C7.36739 40 7.24021 39.9473 7.14645 39.8536C7.05268 39.7598 7 39.6326 7 39.5V32.125L19.15 19.975C19.1945 19.9265 19.2486 19.8878 19.3088 19.8613C19.3691 19.8348 19.4342 19.8211 19.5 19.8211C19.5658 19.8211 19.6309 19.8348 19.6912 19.8613C19.7514 19.8878 19.8055 19.9265 19.85 19.975L31.025 31.15C31.6846 31.8004 32.5737 32.165 33.5 32.165C34.4263 32.165 35.3154 31.8004 35.975 31.15L41.15 25.975C41.1945 25.9265 41.2486 25.8878 41.3088 25.8613C41.3691 25.8348 41.4342 25.8211 41.5 25.8211C41.5658 25.8211 41.6309 25.8348 41.6912 25.8613C41.7514 25.8878 41.8055 25.9265 41.85 25.975L52 36.125V39.5C52 39.6326 51.9473 39.7598 51.8536 39.8536C51.7598 39.9473 51.6326 40 51.5 40ZM34.725 16.275C34.4922 16.0422 34.3081 15.7653 34.1836 15.4606C34.0591 15.1558 33.9967 14.8292 34 14.5C34 13.837 34.2634 13.2011 34.7322 12.7322C35.2011 12.2634 35.837 12 36.5 12C37.163 12 37.7989 12.2634 38.2678 12.7322C38.7366 13.2011 39 13.837 39 14.5C39 15.163 38.7366 15.7989 38.2678 16.2678C37.7989 16.7366 37.163 17 36.5 17C36.1708 17.0033 35.8442 16.9409 35.5394 16.8164C35.2347 16.6919 34.9578 16.5078 34.725 16.275Z" fill="#4A69E2"/>
</g>
<defs>
<filter id="filter0_d_253_2882" x="0" y="0" width="59" height="51" filterUnits="userSpaceOnUse" color-interpolation-filters="sRGB">
<feFlood flood-opacity="0" result="BackgroundImageFix"/>
<feColorMatrix in="SourceAlpha" type="matrix" values="0 0 0 0 0 0 0 0 0 0 0 0 0 0 0 0 0 0 127 0" result="hardAlpha"/>
<feOffset dy="4"/>
<feGaussianBlur stdDeviation="2"/>
<feComposite in2="hardAlpha" operator="out"/>
<feColorMatrix type="matrix" values="0 0 0 0 0 0 0 0 0 0 0 0 0 0 0 0 0 0 0.25 0"/>
<feBlend mode="normal" in2="BackgroundImageFix" result="effect1_dropShadow_253_2882"/>
<feBlend mode="normal" in="SourceGraphic" in2="effect1_dropShadow_253_2882" result="shape"/>
</filter>
</defs>
</svg>
