<svg width="80" height="20" viewBox="0 0 80 20" fill="none" xmlns="http://www.w3.org/2000/svg">
<path d="M20.0738 20.0001C19.8713 20.0001 19.6964 19.926 19.5492 19.7779C19.4019 19.6297 19.3282 19.4538 19.3282 19.2501V1.30566C19.3282 1.10196 19.4019 0.926034 19.5492 0.777886C19.6964 0.629738 19.8713 0.555664 20.0738 0.555664H25.7073C25.9098 0.555664 26.0847 0.629738 26.2319 0.777886C26.3792 0.926034 26.4529 1.10196 26.4529 1.30566V19.2501C26.4529 19.4538 26.3792 19.6297 26.2319 19.7779C26.0847 19.926 25.9098 20.0001 25.7073 20.0001H20.0738Z" fill="#232321"/>
<path d="M0.745599 19.7223C0.543091 19.7223 0.368197 19.6482 0.220918 19.5001C0.0736394 19.3519 0 19.176 0 18.9723V1.02783C0 0.824128 0.0736394 0.648202 0.220918 0.500054C0.368197 0.351906 0.543091 0.277832 0.745599 0.277832H6.02002C6.22253 0.277832 6.39742 0.351906 6.5447 0.500054C6.69198 0.648202 6.76562 0.824128 6.76562 1.02783V6.52783L9.88609 0.888943C9.97814 0.740795 10.1101 0.601906 10.288 0.472276C10.4629 0.342647 10.6961 0.277832 10.9907 0.277832H17.0935C17.2592 0.277832 17.4004 0.33956 17.5231 0.456844C17.6428 0.577215 17.7011 0.71919 17.7011 0.888943C17.7011 1.00005 17.6735 1.10191 17.6182 1.1945L12.6476 9.58339L18.0877 18.8056C18.1429 18.8797 18.1705 18.9815 18.1705 19.1112C18.1705 19.2778 18.1092 19.4229 17.9926 19.5433C17.8729 19.6636 17.7318 19.7223 17.563 19.7223H11.2668C10.8986 19.7223 10.6256 19.6359 10.4537 19.4568C10.2788 19.2809 10.1714 19.1575 10.1346 19.0834L6.76562 13.0278V18.9723C6.76562 19.176 6.69198 19.3519 6.5447 19.5001C6.39742 19.6482 6.22253 19.7223 6.02002 19.7223H0.745599Z" fill="#232321"/>
<path d="M36.7645 20C34.9971 20 33.4323 19.7407 32.07 19.2222C30.7076 18.7037 29.6245 17.8889 28.8237 16.7778C28.0229 15.6667 27.5841 14.2315 27.5135 12.4722C27.4951 11.713 27.4859 10.8981 27.4859 10.0278C27.4859 9.15741 27.4951 8.32407 27.5135 7.52778C27.5872 5.80556 28.0321 4.38889 28.8513 3.27778C29.6705 2.16667 30.7659 1.34259 32.1375 0.805556C33.509 0.268518 35.0523 0 36.7645 0C37.9427 0 39.078 0.135802 40.1764 0.401235C41.2718 0.669753 42.2598 1.09259 43.1435 1.66667C44.0272 2.24074 44.7298 2.9784 45.2545 3.87346C45.7792 4.7716 46.0492 5.85185 46.0706 7.11111C46.0706 7.27778 46.0093 7.42284 45.8927 7.54321C45.773 7.66358 45.6319 7.72222 45.4631 7.72222H39.8297C39.5351 7.72222 39.3173 7.66358 39.1792 7.54321C39.0411 7.42284 38.9184 7.21605 38.808 6.91667C38.6055 6.32407 38.3293 5.92593 37.9795 5.72222C37.6297 5.51852 37.2155 5.41667 36.7369 5.41667C36.1293 5.41667 35.6445 5.58025 35.2855 5.90432C34.9265 6.22839 34.7271 6.8179 34.6903 7.66667C34.6351 9.18519 34.6351 10.7407 34.6903 12.3333C34.7271 13.1852 34.9265 13.7747 35.2855 14.0957C35.6445 14.4198 36.1293 14.5833 36.7369 14.5833C37.2155 14.5833 37.6328 14.4722 37.9918 14.25C38.3508 14.0278 38.6208 13.6389 38.808 13.0833C38.9 12.7685 39.0197 12.5556 39.167 12.4444C39.3142 12.3333 39.5351 12.2778 39.8297 12.2778H45.4631C45.6288 12.2778 45.77 12.3395 45.8927 12.4568C46.0123 12.5772 46.0706 12.7191 46.0706 12.8889C46.0522 14.1481 45.7822 15.2284 45.2545 16.1265C44.7298 17.0247 44.0272 17.7623 43.1435 18.3333C42.2598 18.9074 41.2687 19.3302 40.1764 19.5957C39.078 19.8642 37.9427 20 36.7645 20Z" fill="#232321"/>
<path d="M62.3849 18.8056L56.9447 9.58339L61.9154 1.1945C61.9706 1.10191 61.9982 1.00005 61.9982 0.888943C61.9982 0.722276 61.94 0.580301 61.8203 0.459931C61.7006 0.33956 61.5564 0.277832 61.3907 0.277832H55.2879C54.9933 0.277832 54.7601 0.342647 54.5852 0.472276C54.4103 0.601906 54.2753 0.740795 54.1833 0.888943L51.4218 5.87968L51.0628 6.52783V1.02783C51.0628 0.824128 50.9892 0.648202 50.8419 0.500054C50.6946 0.351906 50.5197 0.277832 50.3172 0.277832H45.0428C44.8403 0.277832 44.6654 0.351906 44.5181 0.500054C44.4997 0.521659 44.4813 0.540178 44.4629 0.561783C44.4445 0.583388 44.4291 0.604992 44.4168 0.626597C44.4015 0.648202 44.3892 0.672894 44.377 0.694499C44.3647 0.71919 44.3555 0.740795 44.3463 0.765486C45.2974 1.42289 46.0768 2.25623 46.6567 3.25005C47.2857 4.3303 47.6171 5.62351 47.6386 7.09265C47.6386 7.60191 47.4483 8.06487 47.1016 8.41672C46.7518 8.76549 46.2916 8.95684 45.8037 8.95684H44.2972V11.0433H45.8037C46.2916 11.0433 46.7518 11.2346 47.0985 11.5834C47.4483 11.9383 47.6386 12.4013 47.6386 12.8889C47.6171 14.3766 47.2857 15.6698 46.6567 16.7501C46.0768 17.7439 45.2974 18.5772 44.3463 19.2346C44.3555 19.2593 44.3647 19.284 44.377 19.3056C44.4015 19.3519 44.4291 19.3982 44.4629 19.4383C44.4813 19.4599 44.4997 19.4784 44.5181 19.5001C44.6654 19.6482 44.8403 19.7223 45.0428 19.7223H50.3172C50.5197 19.7223 50.6946 19.6482 50.8419 19.5001C50.9892 19.3519 51.0628 19.176 51.0628 18.9723V13.0278L51.4218 13.6729L54.4318 19.0834C54.4686 19.1575 54.576 19.284 54.7509 19.4599C54.9258 19.6359 55.1958 19.7223 55.564 19.7223H61.8602C62.0259 19.7223 62.1701 19.6636 62.2897 19.5433C62.4094 19.4229 62.4677 19.2778 62.4677 19.1112C62.4677 18.9815 62.4401 18.8797 62.3849 18.8056Z" fill="#232321"/>
<path d="M70.8319 20C68.7884 20 67.1039 19.7222 65.7784 19.1667C64.4529 18.6111 63.4588 17.8796 62.796 16.9722C62.1332 16.0648 61.7835 15.1019 61.7466 14.0833C61.7466 13.9167 61.8049 13.7747 61.9246 13.6512C62.0443 13.5309 62.1854 13.4722 62.3511 13.4722H67.5979C67.8925 13.4722 68.1165 13.5123 68.276 13.5957C68.4325 13.679 68.6012 13.7963 68.7884 13.9414C68.9725 14.071 69.1597 14.1883 69.353 14.287C69.5463 14.3889 69.7672 14.463 70.0157 14.5093C70.2643 14.5556 70.5343 14.5802 70.8319 14.5802C71.4578 14.5802 71.958 14.5093 72.3354 14.3704C72.7128 14.2315 72.903 14.0432 72.903 13.8025C72.903 13.5802 72.7956 13.3951 72.5839 13.2469C72.3722 13.0988 72.0071 12.966 71.4916 12.8457C70.9761 12.7253 70.2581 12.608 69.3376 12.5C67.8833 12.2963 66.6222 11.9537 65.5544 11.4722C64.4866 10.9907 63.6613 10.3302 63.0844 9.48457C62.5045 8.64198 62.2161 7.60802 62.2161 6.3858C62.2161 5.12654 62.5689 4.01543 63.2777 3.05247C63.9865 2.08951 64.9714 1.33951 66.2325 0.802469C67.4936 0.268518 68.9633 0 70.6386 0C72.0193 0 73.2436 0.179012 74.3114 0.540123C75.3791 0.901235 76.2812 1.37346 77.0176 1.95679C77.754 2.54012 78.3155 3.16667 78.7021 3.83333C79.0887 4.5 79.2912 5.13889 79.3096 5.75C79.3096 5.91667 79.2483 6.06173 79.1317 6.1821C79.012 6.30247 78.877 6.36111 78.7297 6.36111H73.2068C72.949 6.36111 72.7404 6.32407 72.587 6.25C72.4305 6.17593 72.2679 6.06481 72.1022 5.91667C72.0101 5.82407 71.8383 5.71914 71.5898 5.59568C71.3412 5.47531 71.0252 5.41667 70.6355 5.41667C70.1753 5.41667 69.8378 5.48765 69.6291 5.62654C69.4174 5.76543 69.31 5.95679 69.31 6.19444C69.31 6.36111 69.3929 6.51852 69.5586 6.66667C69.7242 6.81481 70.028 6.94444 70.4698 7.05556C70.9117 7.16667 71.5468 7.27778 72.3753 7.38889C74.2162 7.61111 75.6921 7.96914 76.809 8.45679C77.9228 8.94753 78.7328 9.60185 79.2391 10.4167C79.7453 11.2315 80 12.2407 80 13.4444C80 14.7963 79.5981 15.963 78.7972 16.9444C77.9964 17.9259 76.9041 18.679 75.5233 19.2068C74.1426 19.7346 72.5808 20 70.8319 20Z" fill="#232321"/>
</svg>
